<svg 
 xmlns="http://www.w3.org/2000/svg"
 xmlns:xlink="http://www.w3.org/1999/xlink"
 width="43px" height="40px">
<path
 d="M18.735,11.223 C20.570,14.999 22.146,19.036 23.490,22.994 C22.999,23.020 22.508,23.046 22.017,23.046 C19.458,23.046 16.900,22.968 14.342,22.942 L18.735,11.223 ZM-0.000,40.000 C1.628,40.000 3.230,39.921 4.858,39.635 C5.220,39.583 5.737,39.427 6.098,39.427 C9.096,39.427 12.120,39.947 15.117,39.947 C15.143,39.713 15.169,39.479 15.169,39.244 C15.169,38.724 15.169,38.229 15.143,37.734 C13.670,37.526 9.871,37.447 9.871,35.442 C9.871,34.452 12.481,27.630 13.153,26.119 L24.782,26.172 C25.195,27.239 28.529,34.974 28.529,35.911 C28.529,36.875 27.159,37.057 26.462,37.213 L23.076,37.942 C22.999,38.619 22.973,39.296 22.973,39.974 C26.358,39.869 29.743,39.583 33.129,39.583 C36.410,39.583 39.692,40.000 42.974,40.000 C42.974,39.765 43.000,39.557 43.000,39.322 C43.000,38.828 42.922,38.333 42.845,37.838 C41.630,37.369 39.253,37.213 38.400,36.536 C38.038,36.250 37.677,35.468 37.496,35.052 C36.204,32.396 35.299,29.609 34.136,26.901 C32.172,22.317 30.389,17.656 28.451,13.046 L23.154,0.547 C23.076,0.364 22.973,0.182 22.870,-0.001 L21.500,-0.001 L19.562,-0.001 L12.326,18.854 L6.202,34.895 C5.117,37.708 2.481,37.187 0.052,37.942 L-0.000,40.000 Z"/>
</svg>