<svg 
 xmlns="http://www.w3.org/2000/svg"
 xmlns:xlink="http://www.w3.org/1999/xlink"
 width="48px" height="49px">
<path 
 d="M23.994,0.867 C10.738,0.867 -0.000,11.605 -0.000,24.861 C-0.000,38.116 10.738,48.855 23.994,48.855 C37.250,48.855 47.988,38.116 47.988,24.861 C47.988,11.605 37.250,0.867 23.994,0.867 ZM23.994,4.295 C27.475,4.295 30.769,5.178 33.661,6.705 L28.466,11.900 C27.047,11.418 25.574,11.150 23.994,11.150 C22.441,11.150 20.941,11.418 19.522,11.900 L14.327,6.705 C17.219,5.178 20.513,4.295 23.994,4.295 ZM5.838,34.528 C4.311,31.636 3.428,28.342 3.428,24.861 C3.428,21.380 4.311,18.086 5.838,15.194 L11.033,20.389 C10.551,21.808 10.283,23.281 10.283,24.861 C10.283,26.414 10.551,27.914 11.033,29.333 L5.838,34.528 ZM23.994,45.427 C20.513,45.427 17.219,44.544 14.327,43.017 L19.522,37.822 C20.941,38.304 22.441,38.572 23.994,38.572 C25.574,38.572 27.047,38.304 28.466,37.822 L33.661,43.017 C30.769,44.544 27.475,45.427 23.994,45.427 ZM23.994,35.144 C18.317,35.144 13.711,30.538 13.711,24.861 C13.711,19.184 18.317,14.578 23.994,14.578 C29.671,14.578 34.277,19.184 34.277,24.861 C34.277,30.538 29.671,35.144 23.994,35.144 ZM36.955,29.333 C37.437,27.914 37.705,26.414 37.705,24.861 C37.705,23.308 37.437,21.808 36.955,20.389 L42.150,15.194 C43.677,18.086 44.560,21.380 44.560,24.861 C44.560,28.342 43.677,31.636 42.150,34.528 L36.955,29.333 Z"/>
</svg>